<?xml version="1.0" standalone="no"?>
<!DOCTYPE svg PUBLIC "-//W3C//DTD SVG 20010904//EN"
 "http://www.w3.org/TR/2001/REC-SVG-20010904/DTD/svg10.dtd">
<svg version="1.0" xmlns="http://www.w3.org/2000/svg"
 width="260.000000pt" height="260.000000pt" viewBox="0 0 260.000000 260.000000"
 preserveAspectRatio="xMidYMid meet">
<metadata>
Created by potrace 1.14, written by Peter Selinger 2001-2017
</metadata>
<g transform="translate(0.000000,260.000000) scale(0.100000,-0.100000)"
fill="#000000" stroke="none">
<path d="M0 1300 l0 -1300 1300 0 1300 0 0 1300 0 1300 -1300 0 -1300 0 0
-1300z m806 540 c54 -26 91 -51 107 -72 64 -87 80 -248 35 -348 -14 -30 -35
-64 -47 -74 -12 -11 -21 -31 -21 -47 0 -22 8 -32 39 -50 56 -31 80 -69 98
-154 15 -68 15 -79 0 -140 -18 -72 -65 -140 -114 -165 -15 -8 -46 -26 -67 -40
-39 -25 -43 -25 -277 -28 l-237 -4 -16 23 c-14 21 -16 83 -16 559 0 469 2 538
16 558 15 21 20 22 216 22 l201 0 83 -40z m729 20 c15 -12 16 -38 14 -238 -2
-209 -1 -226 16 -238 23 -17 445 -20 476 -4 18 10 19 24 19 240 0 225 0 229
22 244 14 10 44 16 83 16 39 0 69 -6 83 -16 l22 -15 0 -549 0 -549 -22 -15
c-32 -23 -139 -22 -167 2 -19 16 -21 28 -23 224 -2 153 -6 210 -16 220 -10 10
-68 14 -226 16 -212 3 -214 3 -241 -20 l-27 -24 1 -200 c2 -178 0 -202 -15
-215 -23 -19 -155 -19 -178 0 -15 12 -16 61 -14 565 l3 550 25 14 c32 16 142
11 165 -8z"/>
<path d="M512 1693 c-12 -22 -19 -294 -8 -312 10 -16 151 -14 184 3 61 31 98
159 70 240 -20 60 -51 77 -151 83 -77 5 -86 4 -95 -14z"/>
<path d="M510 1181 c-5 -11 -10 -72 -10 -136 0 -64 5 -125 10 -136 9 -17 22
-19 108 -19 78 0 103 4 129 20 50 30 68 65 68 136 0 76 -14 103 -68 132 -35
18 -58 22 -134 22 -81 0 -94 -2 -103 -19z"/>
</g>
</svg>
