<?xml version="1.0" standalone="no"?>
<!DOCTYPE svg PUBLIC "-//W3C//DTD SVG 20010904//EN"
 "http://www.w3.org/TR/2001/REC-SVG-20010904/DTD/svg10.dtd">
<svg version="1.0" xmlns="http://www.w3.org/2000/svg"
 width="266.000000pt" height="266.000000pt" viewBox="0 0 266.000000 266.000000"
 preserveAspectRatio="xMidYMid meet">
<metadata>
Created by potrace 1.14, written by Peter Selinger 2001-2017
</metadata>
<g transform="translate(0.000000,266.000000) scale(0.100000,-0.100000)"
fill="#000000" stroke="none">
<path d="M1145 2224 c-48 -11 -105 -37 -106 -47 -3 -26 3 -65 17 -122 15 -60
34 -174 39 -230 2 -16 6 -57 10 -90 l6 -60 -18 28 c-10 15 -26 30 -36 33 -14
5 -17 12 -12 32 5 21 4 23 -8 14 -7 -6 -27 -12 -44 -14 -18 -1 -29 -6 -27 -10
3 -4 -4 -8 -15 -8 -13 0 -54 33 -104 83 -64 63 -88 94 -102 134 -10 29 -28 64
-40 79 -22 27 -23 27 -81 16 -32 -7 -75 -21 -95 -31 l-36 -19 -22 38 c-16 30
-29 39 -58 45 -21 4 -49 13 -63 20 -36 18 -131 28 -160 16 -14 -5 -18 -10 -10
-10 48 -2 134 -96 147 -161 7 -37 -6 -38 -38 -4 -31 33 -86 67 -98 60 -5 -4
-21 -2 -36 4 l-27 10 21 -33 c11 -18 22 -49 24 -68 2 -27 15 -46 51 -79 26
-24 59 -66 72 -92 14 -28 31 -48 41 -48 25 0 94 -36 126 -65 27 -26 38 -53 15
-38 -7 4 -30 8 -51 8 -32 0 -37 -3 -33 -17 4 -10 9 -27 12 -39 l7 -21 -41 21
-40 20 -17 -22 c-16 -22 -16 -22 -3 3 7 14 12 37 10 52 -3 24 -6 27 -23 18
-15 -8 -24 -6 -41 10 -12 11 -24 17 -27 13 -3 -5 -14 -9 -23 -9 -14 -1 -16 2
-7 17 7 14 6 19 -2 19 -8 0 -9 4 0 13 6 8 8 17 4 20 -3 4 0 7 8 7 8 0 1 11
-16 25 -34 27 -27 33 10 9 19 -13 23 -21 18 -45 -5 -24 -2 -29 16 -30 11 -1
27 -2 34 -3 6 -1 18 -8 25 -16 7 -8 3 4 -9 28 -12 23 -41 59 -66 79 -37 30
-46 34 -55 22 -8 -12 -9 -11 -5 2 7 23 -24 37 -97 45 l-66 7 0 -229 c0 -131 4
-235 10 -244 8 -13 10 -13 10 -1 0 10 11 5 30 -14 33 -31 91 -143 89 -173 0
-10 -3 -12 -6 -4 -2 6 -14 12 -25 12 -14 0 -18 -5 -14 -15 3 -8 1 -15 -3 -15
-5 0 -12 7 -15 16 -5 14 -9 14 -23 3 -15 -12 -16 -12 -10 4 4 10 7 25 7 33 0
20 18 17 22 -3 3 -15 5 -16 10 -3 3 9 -1 25 -8 35 -12 16 -18 18 -34 7 -24
-15 -30 -15 -30 -2 0 5 6 9 13 7 6 -1 12 5 12 13 0 8 -8 16 -17 18 -17 3 -18
-16 -18 -285 1 -224 4 -292 14 -306 7 -9 17 -17 21 -17 4 0 4 8 1 17 -6 15 -3
14 14 -3 16 -15 19 -28 15 -47 -4 -15 -11 -27 -16 -27 -14 0 -11 28 4 33 6 3
4 6 -7 6 -10 1 -25 9 -32 18 -10 15 -13 -7 -13 -127 l-1 -146 30 -11 c34 -13
33 -43 -1 -40 -19 1 -19 2 -2 15 11 9 12 13 4 10 -8 -2 -19 -12 -25 -22 -9
-13 -7 -20 8 -32 17 -12 15 -18 -5 -16 -3 1 -6 -38 -7 -86 l-2 -87 23 25 c12
14 30 36 40 50 13 19 17 21 17 7 0 -23 35 -22 66 2 15 12 33 17 46 13 18 -4
20 -2 13 14 -13 29 -18 84 -9 84 22 -1 36 -21 40 -60 5 -43 42 -107 83 -144
26 -23 35 -17 22 15 -8 22 -6 24 15 24 13 -1 31 -10 38 -21 13 -17 13 -14 6
26 -7 40 -7 43 6 25 8 -10 14 -15 15 -9 0 5 2 17 4 27 3 15 -7 23 -18 15 -9
-7 -37 27 -33 39 3 7 -8 23 -24 35 -17 12 -30 27 -30 34 0 7 -7 20 -16 28 -9
9 -11 16 -4 16 6 0 8 5 4 12 -5 8 -2 9 11 4 15 -5 16 -4 6 8 -9 11 -8 17 4 30
11 11 12 16 4 16 -7 0 -9 3 -6 7 4 3 2 12 -4 19 -15 18 18 33 61 27 19 -2 52
-5 72 -7 48 -2 99 -50 128 -120 34 -83 43 -100 65 -126 12 -14 28 -36 37 -50
15 -25 15 -27 -14 -54 -40 -37 -26 -50 37 -36 53 12 63 18 127 75 79 71 110
165 89 266 -6 28 -10 54 -8 56 3 2 24 7 48 11 61 11 102 -3 118 -40 8 -17 33
-54 55 -82 23 -28 45 -59 48 -68 16 -42 119 -69 201 -54 42 8 130 73 121 88
-4 6 -3 8 3 5 6 -4 16 -1 22 7 9 11 8 14 -5 12 -9 0 -19 5 -22 13 -2 8 0 11 5
8 19 -12 80 73 68 93 -10 16 -43 12 -53 -6 -12 -21 -31 -10 -29 16 1 14 9 20
25 20 13 0 20 4 17 10 -4 6 -11 8 -16 5 -5 -4 -9 3 -9 13 0 12 -9 22 -22 26
-13 3 -36 17 -51 32 -15 14 -35 23 -43 20 -8 -3 -25 -1 -39 4 -21 8 -23 14
-18 43 5 30 2 35 -26 46 -44 19 -98 6 -133 -31 -15 -16 -26 -34 -23 -38 3 -5
-3 -7 -12 -5 -10 1 -17 10 -17 19 1 8 -2 13 -7 10 -5 -3 -9 -1 -9 5 0 14 73
69 117 88 22 9 77 18 133 20 80 4 100 1 130 -15 42 -23 97 -96 104 -138 3 -16
8 -50 11 -75 10 -70 14 -73 105 -77 110 -5 136 1 205 52 73 55 118 128 102
164 -8 17 -8 25 1 31 6 3 9 21 7 39 -2 18 0 32 5 32 15 0 -1 33 -34 69 -46 49
-96 79 -131 75 -160 -15 -203 -16 -209 -5 -4 6 -18 11 -31 11 -37 0 -38 16 -3
43 68 50 204 72 272 43 22 -9 41 -14 43 -12 2 2 -3 21 -11 41 -21 49 -20 66 1
58 9 -4 14 -2 11 3 -3 5 -13 34 -22 65 -18 57 -55 92 -85 81 -8 -3 -11 0 -7 7
4 6 14 11 22 11 8 0 13 4 10 9 -3 5 -36 12 -73 16 -38 3 -85 15 -105 25 -21
11 -44 17 -51 14 -19 -7 -65 32 -69 59 -4 21 -4 21 -17 -4 l-13 -27 -29 30
c-16 17 -31 39 -34 49 -4 11 -13 19 -20 19 -9 0 -12 6 -8 16 4 12 2 15 -8 12
-7 -2 -16 -15 -19 -28 -3 -13 -11 -25 -17 -27 -14 -5 -75 56 -67 68 7 12 -3
12 -25 0 -13 -7 -26 -2 -56 23 -38 33 -39 33 -17 45 12 6 59 14 104 17 82 6
138 19 138 34 0 4 -20 17 -44 28 -43 21 -50 30 -66 84 -7 22 -3 34 22 65 51
65 58 86 58 182 0 80 -3 92 -24 118 -48 57 -202 112 -271 97z m-611 -340 c60
-28 103 -71 87 -87 -5 -5 -17 -4 -30 3 -12 6 -31 8 -42 5 -12 -4 -27 -1 -37 9
-24 21 -107 38 -148 30 -31 -6 -34 -4 -34 19 0 18 8 28 28 35 68 27 95 24 176
-14z m455 -193 c7 -5 11 -13 7 -19 -9 -15 14 -26 27 -13 18 18 48 13 91 -16
54 -37 76 -60 76 -78 0 -18 -31 -20 -48 -3 -16 16 -15 -1 3 -32 23 -40 19 -65
-10 -66 -14 -1 -25 2 -25 7 0 5 -7 9 -15 9 -8 0 -15 5 -15 10 0 6 7 10 15 10
8 0 15 5 15 10 0 6 -7 10 -15 10 -9 0 -18 7 -21 15 -9 23 -26 18 -19 -5 4 -11
3 -34 0 -51 l-7 -31 -12 23 c-6 13 -21 25 -33 27 -12 2 -27 10 -34 18 -11 13
-9 14 14 9 21 -6 27 -4 27 9 0 9 0 19 1 23 0 3 -21 19 -49 34 -42 23 -59 27
-116 24 -41 -1 -73 -8 -84 -17 -22 -19 -49 -29 -89 -34 -68 -7 -26 47 70 91
43 20 77 28 133 30 41 1 77 5 81 9 8 8 15 7 32 -3z m-113 -124 c4 -3 -5 -18
-19 -33 -14 -15 -23 -32 -21 -39 3 -6 -2 -12 -11 -12 -8 0 -15 7 -15 14 0 8
-5 11 -11 8 -6 -4 -19 2 -30 14 -20 21 -24 42 -12 55 8 8 110 2 119 -7z m-355
-29 c11 -21 11 -22 -4 -9 -10 7 -17 17 -17 22 0 15 9 10 21 -13z m-237 -43
c-5 -11 2 -15 27 -15 101 -1 233 -133 228 -228 l-2 -27 -4 25 c-5 27 -23 52
-23 32 0 -7 -7 -12 -16 -12 -9 0 -14 7 -12 18 4 18 -43 72 -64 72 -7 0 -24 9
-38 20 -14 11 -33 20 -44 20 -10 0 -27 11 -38 25 -11 14 -26 25 -34 25 -8 0
-14 5 -14 10 0 6 4 10 9 10 5 0 11 9 14 20 3 11 8 20 11 20 3 0 3 -7 0 -15z
m1001 -72 c17 -35 17 -37 -1 -50 -10 -8 -33 -11 -54 -9 -19 3 -40 5 -46 5 -6
1 -11 7 -11 14 0 6 -3 21 -6 33 -6 16 -1 22 20 31 56 22 79 16 98 -24z m-258
-8 c0 -8 -4 -12 -9 -9 -5 3 -6 10 -3 15 9 13 12 11 12 -6z m-667 -39 c0 -11
-19 -15 -25 -6 -3 5 1 10 9 10 9 0 16 -2 16 -4z m93 -73 c8 -17 7 -27 -1 -35
-9 -9 -12 -7 -12 9 0 28 -21 43 -50 36 -21 -6 -22 -4 -10 9 19 20 59 10 73
-19z m1224 -19 c-3 -3 -12 -4 -19 -1 -8 3 -5 6 6 6 11 1 17 -2 13 -5z m-390
-86 c7 -5 24 -11 38 -13 28 -3 70 -35 47 -35 -7 0 -17 -12 -22 -26 -9 -24 -11
-24 -37 -11 -16 8 -48 21 -73 28 -25 7 -46 13 -47 13 -1 1 -4 13 -8 28 -6 22
-3 27 17 31 28 5 69 -2 85 -15z m-510 -29 c-14 -8 -22 -8 -30 0 -8 8 -3 11 19
11 25 -1 27 -2 11 -11z m-60 -5 c13 -4 20 -10 17 -15 -7 -11 0 -11 53 1 40 9
46 8 105 -30 62 -40 78 -56 78 -75 0 -5 -9 1 -19 14 l-18 24 -7 -27 c-4 -15
-12 -26 -19 -23 -7 2 -17 -3 -24 -12 -9 -13 -8 -20 4 -33 15 -17 14 -18 -5
-18 -11 0 -24 -4 -27 -10 -10 -17 -25 -11 -18 6 5 14 1 16 -21 12 -20 -4 -26
-2 -22 8 4 10 -3 14 -26 14 -27 0 -29 2 -17 16 7 9 24 20 37 25 19 8 23 14 18
34 -5 20 -3 25 13 25 11 0 22 -6 24 -12 4 -10 6 -10 6 -1 1 13 -18 26 -64 43
-24 9 -26 8 -19 -12 6 -22 6 -22 -13 -5 -11 9 -24 17 -30 17 -6 0 -13 5 -15
10 -2 7 -20 7 -53 1 -56 -10 -63 -8 -45 14 13 15 66 20 107 9z m690 -66 c-3
-8 -6 -5 -6 6 -1 11 2 17 5 13 3 -3 4 -12 1 -19z m-45 -94 c32 -17 67 -64 60
-83 -2 -8 0 -11 6 -7 5 3 13 -1 16 -10 3 -8 2 -12 -4 -9 -6 3 -10 -1 -10 -9 0
-24 -17 -19 -61 16 -26 21 -51 32 -74 32 -19 1 -35 5 -35 10 0 5 -15 5 -32 1
-66 -14 -128 -17 -128 -6 0 6 5 11 10 11 6 0 10 5 10 11 0 7 -12 10 -29 7 -37
-5 -32 5 11 25 32 15 93 13 83 -3 -9 -14 13 -22 33 -11 11 6 24 6 36 -1 20
-11 39 1 28 18 -4 6 -16 16 -27 23 -29 17 71 3 107 -15z m601 -117 c3 -8 1
-20 -4 -28 -6 -10 -9 -7 -9 14 0 29 5 35 13 14z m-583 -40 c0 -5 -7 -2 -15 7
-8 8 -15 20 -15 27 0 14 29 -20 30 -34z m-1074 -4 c-10 -10 -19 5 -10 18 6 11
8 11 12 0 2 -7 1 -15 -2 -18z m1704 -18 c-7 -9 -15 -13 -19 -10 -3 3 1 10 9
15 21 14 24 12 10 -5z m-1296 -20 c73 -31 101 -122 30 -95 -14 6 -26 5 -29 0
-4 -6 -1 -10 4 -10 6 0 11 -7 11 -15 0 -24 -54 -12 -56 13 -2 30 -5 34 -18 29
-7 -3 -18 -1 -23 4 -5 5 -30 10 -56 11 -26 1 -43 6 -38 11 9 9 13 10 79 22 47
8 46 8 31 37 -10 18 -8 19 12 13 12 -4 36 -13 53 -20z m506 -140 c-10 -12 -10
-18 0 -30 16 -20 39 -19 63 3 19 16 20 16 10 -3 -6 -11 -8 -25 -6 -32 5 -14
-19 -21 -79 -21 -41 0 -46 2 -34 14 8 8 20 30 26 49 6 19 16 35 22 35 6 0 6
-6 -2 -15z m774 -10 c-4 -8 -11 -15 -16 -15 -6 0 -5 6 2 15 7 8 14 15 16 15 2
0 1 -7 -2 -15z m-1237 -30 c51 -26 143 -99 143 -115 0 -18 -30 -18 -66 1 -42
21 -85 24 -114 9 -10 -5 -42 -12 -72 -16 -42 -5 -58 -3 -70 9 -9 9 -27 19 -42
23 -15 3 -33 15 -41 26 -8 13 -20 18 -30 14 -26 -10 -7 13 26 29 37 20 133 43
180 44 19 1 58 -10 86 -24z m210 -40 c-7 -13 -14 -20 -15 -14 -5 14 6 39 17
39 5 0 4 -11 -2 -25z m508 -65 c3 -5 1 -10 -4 -10 -6 0 -11 5 -11 10 0 6 2 10
4 10 3 0 8 -4 11 -10z m-1304 -95 c24 -35 56 -57 46 -32 -3 7 3 18 13 24 16
10 16 9 5 -23 -14 -42 -19 -47 -53 -52 -15 -2 -28 -5 -30 -7 -2 -2 -22 6 -43
17 -33 17 -38 23 -27 35 7 9 21 19 33 23 17 7 17 9 3 9 -10 1 -18 4 -18 7 0 8
32 33 41 34 4 0 17 -16 30 -35z m-121 -134 c0 -5 -6 -14 -14 -20 -16 -13 -32
2 -21 19 8 12 35 13 35 1z"/>
<path d="M818 1143 c7 -3 16 -2 19 1 4 3 -2 6 -13 5 -11 0 -14 -3 -6 -6z"/>
<path d="M833 1051 c1 -15 4 -17 14 -10 7 6 17 8 23 4 5 -3 10 1 10 9 0 10 -9
16 -24 16 -18 0 -24 -5 -23 -19z"/>
<path d="M805 1010 c3 -5 8 -10 11 -10 2 0 4 5 4 10 0 6 -5 10 -11 10 -5 0 -7
-4 -4 -10z"/>
<path d="M603 590 c-1 -13 7 -25 23 -32 21 -10 28 -8 46 10 l22 21 -28 11
c-42 16 -62 12 -63 -10z"/>
<path d="M70 2110 c20 -13 33 -13 25 0 -3 6 -14 10 -23 10 -15 0 -15 -2 -2
-10z"/>
<path d="M115 2110 c3 -5 13 -10 21 -10 8 0 12 5 9 10 -3 6 -13 10 -21 10 -8
0 -12 -4 -9 -10z"/>
<path d="M0 1957 l0 -42 43 3 c24 2 60 -1 79 -6 l35 -10 -14 29 c-19 37 -44
50 -82 43 -18 -4 -31 -2 -31 4 0 5 -7 12 -15 16 -12 4 -15 -3 -15 -37z"/>
<path d="M1696 1890 c-79 -10 -117 -47 -124 -118 -2 -27 1 -65 7 -85 10 -29
18 -36 49 -42 20 -3 57 -13 80 -22 l44 -16 28 30 c27 29 59 45 110 57 26 6 60
60 60 97 0 49 -44 99 -86 97 -10 0 -39 2 -64 5 -25 3 -71 2 -104 -3z"/>
<path d="M1872 1614 c-12 -8 -30 -13 -40 -10 -10 4 -27 0 -37 -8 -18 -13 -17
-14 11 -29 51 -27 174 -164 174 -193 0 -21 -51 -74 -71 -74 -18 0 -16 -5 12
-40 18 -22 38 -40 45 -40 26 0 94 32 94 45 0 7 18 27 39 44 38 31 71 92 71
131 0 42 -24 71 -84 101 -34 17 -68 37 -76 44 -37 33 -111 48 -138 29z"/>
<path d="M2030 1620 c0 -6 7 -10 15 -10 8 0 15 2 15 4 0 2 -7 6 -15 10 -8 3
-15 1 -15 -4z"/>
<path d="M1773 1023 c-15 -3 -23 -12 -23 -25 0 -17 4 -19 28 -13 15 3 31 10
36 15 9 9 0 31 -12 29 -4 -1 -17 -4 -29 -6z"/>
<path d="M1433 640 c37 -32 47 -36 47 -20 0 10 -58 50 -73 50 -4 0 8 -13 26
-30z"/>
<path d="M1548 553 c7 -3 16 -2 19 1 4 3 -2 6 -13 5 -11 0 -14 -3 -6 -6z"/>
<path d="M2189 520 c-9 -5 -71 -8 -137 -6 -134 4 -139 2 -176 -71 -44 -87 -28
-175 54 -288 28 -38 50 -75 50 -82 0 -17 42 -43 84 -53 45 -10 127 5 146 27 9
10 23 23 31 28 84 54 106 70 121 88 12 16 14 24 5 30 -9 5 -6 12 8 23 15 11
20 26 19 60 -1 29 2 40 8 32 12 -19 -1 72 -15 100 -14 29 -93 87 -129 96 -16
3 -28 11 -28 16 0 12 -20 12 -41 0z m58 -112 c-3 -8 -6 -5 -6 6 -1 11 2 17 5
13 3 -3 4 -12 1 -19z m79 -223 c-3 -8 -1 -15 5 -15 6 0 7 -5 3 -11 -5 -8 -10
-6 -16 5 -5 9 -6 21 -3 26 10 15 18 12 11 -5z m-22 -57 c-3 -4 -11 -8 -19 -8
-7 0 -15 -6 -18 -12 -2 -7 -7 -10 -10 -7 -4 3 3 17 15 32 15 19 24 23 29 15 4
-7 5 -16 3 -20z"/>
</g>
</svg>
